<?xml version="1.0" standalone="no"?>
<svg xmlns:xlink="http://www.w3.org/1999/xlink" id="wave" style="transform:rotate(0deg); transition: 0.3s" viewBox="0 0 1440 200" version="1.1" xmlns="http://www.w3.org/2000/svg"><defs><linearGradient id="sw-gradient-0" x1="0" x2="0" y1="1" y2="0"><stop stop-color="rgba(49.307, 31.279, 25.489, 1)" offset="0%"/><stop stop-color="rgba(116, 62, 140, 1)" offset="100%"/></linearGradient></defs><path style="transform:translate(0, 0px); opacity:1" fill="url(#sw-gradient-0)" d="M0,20L48,20C96,20,192,20,288,36.7C384,53,480,87,576,86.7C672,87,768,53,864,46.7C960,40,1056,60,1152,83.3C1248,107,1344,133,1440,126.7C1536,120,1632,80,1728,73.3C1824,67,1920,93,2016,116.7C2112,140,2208,160,2304,143.3C2400,127,2496,73,2592,70C2688,67,2784,113,2880,136.7C2976,160,3072,160,3168,156.7C3264,153,3360,147,3456,126.7C3552,107,3648,73,3744,50C3840,27,3936,13,4032,23.3C4128,33,4224,67,4320,93.3C4416,120,4512,140,4608,146.7C4704,153,4800,147,4896,150C4992,153,5088,167,5184,160C5280,153,5376,127,5472,110C5568,93,5664,87,5760,90C5856,93,5952,107,6048,106.7C6144,107,6240,93,6336,73.3C6432,53,6528,27,6624,13.3C6720,0,6816,0,6864,0L6912,0L6912,200L6864,200C6816,200,6720,200,6624,200C6528,200,6432,200,6336,200C6240,200,6144,200,6048,200C5952,200,5856,200,5760,200C5664,200,5568,200,5472,200C5376,200,5280,200,5184,200C5088,200,4992,200,4896,200C4800,200,4704,200,4608,200C4512,200,4416,200,4320,200C4224,200,4128,200,4032,200C3936,200,3840,200,3744,200C3648,200,3552,200,3456,200C3360,200,3264,200,3168,200C3072,200,2976,200,2880,200C2784,200,2688,200,2592,200C2496,200,2400,200,2304,200C2208,200,2112,200,2016,200C1920,200,1824,200,1728,200C1632,200,1536,200,1440,200C1344,200,1248,200,1152,200C1056,200,960,200,864,200C768,200,672,200,576,200C480,200,384,200,288,200C192,200,96,200,48,200L0,200Z"/><defs><linearGradient id="sw-gradient-1" x1="0" x2="0" y1="1" y2="0"><stop stop-color="rgba(44.753, 44.753, 44.753, 1)" offset="0%"/><stop stop-color="rgba(116, 62, 140, 1)" offset="100%"/></linearGradient></defs><path style="transform:translate(0, 50px); opacity:0.9" fill="url(#sw-gradient-1)" d="M0,100L48,93.3C96,87,192,73,288,60C384,47,480,33,576,23.3C672,13,768,7,864,13.3C960,20,1056,40,1152,66.7C1248,93,1344,127,1440,123.3C1536,120,1632,80,1728,66.7C1824,53,1920,67,2016,83.3C2112,100,2208,120,2304,126.7C2400,133,2496,127,2592,123.3C2688,120,2784,120,2880,123.3C2976,127,3072,133,3168,133.3C3264,133,3360,127,3456,110C3552,93,3648,67,3744,56.7C3840,47,3936,53,4032,63.3C4128,73,4224,87,4320,90C4416,93,4512,87,4608,96.7C4704,107,4800,133,4896,133.3C4992,133,5088,107,5184,93.3C5280,80,5376,80,5472,86.7C5568,93,5664,107,5760,113.3C5856,120,5952,120,6048,126.7C6144,133,6240,147,6336,136.7C6432,127,6528,93,6624,96.7C6720,100,6816,140,6864,160L6912,180L6912,200L6864,200C6816,200,6720,200,6624,200C6528,200,6432,200,6336,200C6240,200,6144,200,6048,200C5952,200,5856,200,5760,200C5664,200,5568,200,5472,200C5376,200,5280,200,5184,200C5088,200,4992,200,4896,200C4800,200,4704,200,4608,200C4512,200,4416,200,4320,200C4224,200,4128,200,4032,200C3936,200,3840,200,3744,200C3648,200,3552,200,3456,200C3360,200,3264,200,3168,200C3072,200,2976,200,2880,200C2784,200,2688,200,2592,200C2496,200,2400,200,2304,200C2208,200,2112,200,2016,200C1920,200,1824,200,1728,200C1632,200,1536,200,1440,200C1344,200,1248,200,1152,200C1056,200,960,200,864,200C768,200,672,200,576,200C480,200,384,200,288,200C192,200,96,200,48,200L0,200Z"/></svg>